<svg xmlns="http://www.w3.org/2000/svg" xmlns:xlink="http://www.w3.org/1999/xlink" width="129.798" height="55.975" viewBox="0 0 129.798 55.975"><defs><linearGradient id="a" x1="0.081" y1="0.962" x2="1.067" y2="0.086" gradientUnits="objectBoundingBox"><stop offset="0" stop-color="#7aace9"/><stop offset="0.5" stop-color="#2a5bff"/><stop offset="1" stop-color="#8846d9"/></linearGradient><linearGradient id="b" x1="0.097" y1="0.92" x2="0.907" y2="0.083" xlink:href="#a"/><linearGradient id="c" x1="-0.018" y1="0.764" x2="0.85" y2="0.108" xlink:href="#a"/></defs><g transform="translate(-261 -61)"><path d="M2.132-1.092A.957.957,0,0,0,3.2,0h1.2A.957.957,0,0,0,5.46-1.092v-6.37H10.5A.987.987,0,0,0,11.6-8.554v-.728A.968.968,0,0,0,10.5-10.348H5.46v-5.226h6.188A.968.968,0,0,0,12.74-16.64v-.728a.987.987,0,0,0-1.092-1.092H3.2a.968.968,0,0,0-1.066,1.092Zm13.312,0A.957.957,0,0,0,16.51,0h9.152a.965.965,0,0,0,1.092-1.092V-1.82a.957.957,0,0,0-1.092-1.066h-6.89V-17.368a.968.968,0,0,0-1.066-1.092h-1.2a.968.968,0,0,0-1.066,1.092Zm13.546,0A.957.957,0,0,0,30.056,0h1.2a.957.957,0,0,0,1.066-1.092V-17.368a.968.968,0,0,0-1.066-1.092h-1.2a.968.968,0,0,0-1.066,1.092Zm7.592,0A.957.957,0,0,0,37.648,0h5.59c3.432,0,6.37-1.664,6.37-5.356A4.329,4.329,0,0,0,46.644-9.7V-9.75A4.369,4.369,0,0,0,48.88-13.7c0-3.042-2.392-4.758-5.72-4.758H37.648a.968.968,0,0,0-1.066,1.092ZM39.91-10.92v-4.654h3.2a2.131,2.131,0,0,1,2.34,2.288,2.183,2.183,0,0,1-2.262,2.366Zm0,8.034v-5.33H43.5a2.5,2.5,0,0,1,2.678,2.652A2.5,2.5,0,0,1,43.5-2.886Zm11.8-6.474A9.355,9.355,0,0,0,61.256.312,9.355,9.355,0,0,0,70.8-9.36a9.233,9.233,0,0,0-9.542-9.412A9.233,9.233,0,0,0,51.714-9.36Zm3.458,0A6.058,6.058,0,0,1,61.256-15.7,6.058,6.058,0,0,1,67.34-9.36c0,3.744-2.548,6.6-6.084,6.6S55.172-5.616,55.172-9.36Z" transform="translate(320 107)" fill="#4256f6"/><g transform="translate(131.205 -55.403)"><path d="M168.9,131.92h-2.623l10.748-10.431a2.542,2.542,0,1,0-2.466-1.726L162.574,131.4,149.4,119.605c.009-.06.019-.119.024-.181a2.556,2.556,0,1,0-2.1,2.294l11.4,10.2H140.352a10.557,10.557,0,0,0-10.557,10.557v19.344a10.557,10.557,0,0,0,10.557,10.557H168.9a10.557,10.557,0,0,0,10.557-10.557V142.477A10.557,10.557,0,0,0,168.9,131.92Zm3.462,29.9a3.465,3.465,0,0,1-3.462,3.462h-28.55a3.466,3.466,0,0,1-3.462-3.462V142.477a3.466,3.466,0,0,1,3.462-3.462H168.9a3.466,3.466,0,0,1,3.462,3.462Z" fill="url(#a)"/><path d="M209.788,258.316h-.939a.891.891,0,0,0-.986.985v.822a.881.881,0,0,0,.986.985h.939a.864.864,0,0,0,.962-.985V259.3A.874.874,0,0,0,209.788,258.316Z" transform="translate(-55.494 -100.878)" fill="url(#b)"/><path d="M204.28,209.21a6.616,6.616,0,0,0-3.638,1.079c-.54.352-.54.8-.164,1.315l.4.586a.98.98,0,0,0,1.408.235,3.912,3.912,0,0,1,1.736-.469A2.093,2.093,0,0,1,206.3,213.9c0,2.394-3.873,3.169-3.873,6.149v.376a.874.874,0,0,0,.986.962h.939c.563,0,.821-.188.939-.681l.047-.4c.282-2.37,4.084-3,4.084-6.689C209.42,210.853,206.932,209.21,204.28,209.21Z" transform="translate(-50.057 -65.972)" fill="url(#c)"/></g></g></svg>